<?xml version="1.0" encoding="utf-8"?>
<!-- Svg Vector Icons : http://www.onlinewebfonts.com/icon -->
<!DOCTYPE svg PUBLIC "-//W3C//DTD SVG 1.1//EN" "http://www.w3.org/Graphics/SVG/1.1/DTD/svg11.dtd">
<svg version="1.1" xmlns="http://www.w3.org/2000/svg" xmlns:xlink="http://www.w3.org/1999/xlink" height="24" width="24" x="0px" y="0px" viewBox="0 0 1000 1000"  xml:space="preserve">
<metadata> Svg Vector Icons : http://www.onlinewebfonts.com/icon </metadata>
<g><g><path d="M503.6,9.8C232.3,8.1,8.5,230.4,10,500.3C10,769.3,229.7,990,498,990.2c270.7,0.2,491.9-219.9,492-489.5C990.1,231.9,770.3,11.6,503.6,9.8z M304.6,894.1c-30.7-12.9-57.9-31.7-83.3-52.7C123.3,759.7,69.1,655,60,527.8c-4.8-66.8,6-131.6,31.5-193.7c1.3-3.2,1.5-8.8,6-8.5c3.4,0.3,3.7,5.4,4.7,8.5C168.5,515.6,234.7,697,300.9,878.5c1.8,4.7,3.1,9.8,4.6,14.7l0,0.8L304.6,894.1z M635,919.4c-82.1,25.9-164.7,27.9-248.2,6.5c-11.2-2.7-10-8.1-7.2-16.2c30.1-86.9,59.9-173.5,89.8-260.4c10.9-31.6,21.6-63.2,32.5-94.5c1.3-3.8,1.8-8.2,6.8-12.5c4.7,12.7,9.1,24.2,13.3,35.8c39.9,109.2,79.6,218.3,119.7,327.5C644.6,913.5,643.2,916.8,635,919.4z M720.4,761.3c-4.7-3.2-5-7.3-6.2-10.7C664.6,603.3,615,456,565.5,308.7c-5-14.8-4.9-14.7,11-16.3c11.3-1,22.6-2,33.8-3.6c11.5-1.7,17.6-9.6,16.6-19.8c-0.9-10-7.8-15.9-19.3-15.5c-27.4,1.1-54.9,3.2-82.4,4.3c-48.2,1.7-96.3-1.3-144.3-4.2c-2.4-0.2-4.8-0.4-7.2-0.2c-10.4,0.6-16.9,6.4-17.9,16.3c-1,9.3,5,17.4,15.1,18.9c12.5,1.8,25.2,3.1,37.9,4.1c6.3,0.5,10.1,2.4,12.4,8.5c21.1,58.2,42.3,116.4,63.6,174.5c1.8,4.9,0.9,9.4-0.7,14c-29.7,89-59.4,178.1-89.1,267.2c-0.9,2.8-1.5,6.1-4.5,8c-4-2-4.1-6.2-5.2-9.6C335,606.3,284.9,457.3,234.9,308.4c-4.9-14.6-4.8-14.6,10.3-15.9c10.6-0.9,21.3-1.8,31.8-3.3c13.1-1.7,20.3-9.4,19.3-19.6c-1-11-8.5-16.6-22.2-16.2c-35.4,1.3-70.6,5.1-106.1,4.6c-8.3-0.1-16.5,0-24.8-0.2c-2.9-0.1-6.8,1.3-8.3-2.3c-1.1-2.8,1.5-5.1,3.1-7.3c18.1-26.1,38.6-50.1,62.1-71.6C270.3,112.4,352.5,73.1,447,62.5C575.2,48.2,689.3,83,788.1,166.5c2,1.7,4.8,2.9,4.8,6.2c-1.3,2.2-3.6,1.9-5.6,2.2c-47.6,6.3-77.2,47.5-68,94.8c4.3,22.4,14.8,42.1,26.4,61.3c10.1,16.8,20.7,33.3,29.2,50.9c23.7,49.2,28.9,100.3,13.8,152.7c-21.1,73.6-43.6,147-65.5,220.5C722.6,757,721.5,758.8,720.4,761.3z M724.1,876.8c-0.7-5.5,2-10.1,3.7-14.8c46.1-132.9,92.4-265.6,138.4-398.6c18.3-52.9,27.5-107.2,21.4-163.4c-0.2-1.6-0.6-3.3,2.3-5.8c56,111.3,66.1,225.8,28.3,344.1C886.7,735.9,783.2,862.4,724.1,876.8z"/></g><g></g><g></g><g></g><g></g><g></g><g></g><g></g><g></g><g></g><g></g><g></g><g></g><g></g><g></g><g></g></g>
</svg>